<?xml version="1.0" encoding="UTF-8" standalone="no"?>
<svg
   version="1.0"
   width="140.000000pt"
   height="140.000000pt"
   viewBox="0 0 140.000000 140.000000"
   preserveAspectRatio="xMidYMid meet"
   id="svg249"
   sodipodi:docname="ikawe-shape-invert.svg"
   inkscape:version="1.2 (dc2aeda, 2022-05-15)"
   xmlns:inkscape="http://www.inkscape.org/namespaces/inkscape"
   xmlns:sodipodi="http://sodipodi.sourceforge.net/DTD/sodipodi-0.dtd"
   xmlns:xlink="http://www.w3.org/1999/xlink"
   xmlns="http://www.w3.org/2000/svg"
   xmlns:svg="http://www.w3.org/2000/svg">
  <defs
     id="defs253">
    <linearGradient
       inkscape:collect="always"
       id="linearGradient4852">
      <stop
         style="stop-color:#c8ef66;stop-opacity:1;"
         offset="0"
         id="stop4848" />
      <stop
         style="stop-color:#11c5cb;stop-opacity:1;"
         offset="1"
         id="stop4850" />
    </linearGradient>
    <linearGradient
       inkscape:collect="always"
       xlink:href="#linearGradient4852"
       id="linearGradient4854"
       x1="62.711868"
       y1="99.957642"
       x2="121.18644"
       y2="22.245775"
       gradientUnits="userSpaceOnUse"
       gradientTransform="matrix(1.172034,0,0,1.148305,-16.593581,-11.073867)" />
  </defs>
  <sodipodi:namedview
     id="namedview251"
     pagecolor="#ffffff"
     bordercolor="#000000"
     borderopacity="0.25"
     inkscape:showpageshadow="2"
     inkscape:pageopacity="0.0"
     inkscape:pagecheckerboard="0"
     inkscape:deskcolor="#d1d1d1"
     inkscape:document-units="pt"
     showgrid="false"
     inkscape:zoom="1.2642857"
     inkscape:cx="49.435028"
     inkscape:cy="93.728814"
     inkscape:window-width="1440"
     inkscape:window-height="783"
     inkscape:window-x="0"
     inkscape:window-y="25"
     inkscape:window-maximized="1"
     inkscape:current-layer="svg249" />
  <circle
     style="fill:url(#linearGradient4854);fill-opacity:1;fill-rule:nonzero;stroke-width:0.870082"
     id="path478"
     cx="66.144066"
     cy="72.372894"
     r="58" />
  <g
     transform="matrix(0.1,0,0,-0.1,0,141.5)"
     fill="#000000"
     stroke="none"
     id="g247"
     style="fill:#ffffff">
    <path
       d="m 630,1389 c -115,-11 -224,-36 -288,-66 -60,-28 -78,-53 -62,-83 11,-20 11,-20 48,-1 52,27 251,78 354,91 48,7 161,10 252,8 l 166,-3 v 26 c 0,25 -2,26 -82,32 -105,9 -278,7 -388,-4 z"
       id="path241"
       style="fill:#ffffff" />
    <path
       d="m 620,1283 c -220,-24 -370,-87 -339,-144 9,-17 12,-18 33,-4 13,9 68,27 122,41 177,45 277,57 477,57 185,1 187,1 187,23 0,18 -8,22 -46,28 -48,6 -372,6 -434,-1 z"
       id="path243"
       style="fill:#ffffff" />
    <path
       d="m 673,1190 c -198,-17 -344,-58 -383,-107 -25,-32 -14,-56 40,-83 l 40,-20 3,-368 c 1,-202 2,-413 2,-470 0,-56 2,-102 5,-102 3,1 26,29 53,64 l 47,63 v 459 460 l 45,12 c 25,7 51,12 58,12 9,0 11,-89 9,-405 -1,-223 1,-405 6,-405 4,0 29,22 55,48 l 47,48 v 365 366 l 51,6 c 29,4 56,4 60,1 5,-3 9,-149 9,-325 V 490 l 50,32 50,33 v 293 292 h 40 40 V 875 c 0,-146 2,-265 4,-265 2,0 25,9 50,20 l 46,19 v 264 265 l -28,5 c -55,11 -299,15 -399,7 z"
       id="path245"
       style="fill:#ffffff" />
  </g>
</svg>
